# xmcd
#
# Track frame offsets: 
#        150
#        17394
#        34874
#        59276
#        74566
#        92844
#        113750
#        131221
#        149620
#        169615
#        188347
#        212441
#        226812
#
# Disc length: 3229 seconds
#
# Revision: 0
# Processed by: cddbd v1.5.2PL0 Copyright (c) Steve Scherf et al.
# Submitted via: ExactAudioCopy v1.0b1
#
DISCID=ae0c9b0d
DTITLE=Idol Hands - See Around That Corner
DYEAR=2012
DGENRE=Acoustic
TTITLE0=See Around That Corner
TTITLE1=Copperline
TTITLE2=Night In The Harem
TTITLE3=The Whiskey Boat
TTITLE4=Like An Arrow
TTITLE5=Going Home Tonight
TTITLE6=Feelin' Good Again
TTITLE7=I'm So Lonesome I Could Cry
TTITLE8=Tear My Stillhouse Down
TTITLE9=Ax To Grind
TTITLE10=The Dutchman
TTITLE11=Turkey Knob
TTITLE12=Sometimes She Forgets
EXTD=
EXTT0=
EXTT1=
EXTT2=
EXTT3=
EXTT4=
EXTT5=
EXTT6=
EXTT7=
EXTT8=
EXTT9=
EXTT10=
EXTT11=
EXTT12=
PLAYORDER=
